<svg width="428" height="295" viewBox="0 0 428 295" fill="none" xmlns="http://www.w3.org/2000/svg">
<g clip-path="url(#clip0_1_1169)">
<path d="M428.002 294.938H0C4.68958 282.962 13.3505 272.802 25.5592 269.788C43.4191 265.385 62.3194 277.493 80.1391 272.939C90.2633 270.355 98.2336 262.826 106.609 256.572C138.207 232.983 181.504 226.01 218.894 238.497C238.437 245.021 256.245 256.429 276.265 261.277C302.154 267.551 329.226 262.348 355.849 261.491C381.777 260.659 418.927 271.239 428.002 294.938Z" fill="#F3F5FD"/>
<path d="M358.388 205.594C355.329 214.874 344.773 223.119 347.927 229.944C349.126 232.538 350.33 235.251 350.885 238.022C351.244 239.674 351.304 241.378 351.062 243.052C349.924 250.278 343.172 255.078 336.892 258.816C336.505 259.046 336.113 259.28 335.721 259.515C329.771 263.085 323.54 267.196 321.628 273.786C320.567 277.447 321.036 281.361 320.596 285.147C320.179 288.626 318.999 291.97 317.141 294.938H277.041C273.48 291.009 273.777 284.405 276.486 279.772C279.387 274.814 284.285 271.445 288.706 267.779C292.524 264.611 296.247 260.797 297.705 256.145C297.936 255.409 298.107 254.655 298.216 253.891C298.57 251.374 298.379 238.515 302.737 230.599C309.475 218.377 320.405 221.387 323.745 214.491C325.026 211.849 326.13 179.388 347.42 185.384C349.496 185.94 351.437 186.914 353.125 188.245C354.814 189.577 356.213 191.239 357.239 193.13C358.266 195.02 358.897 197.101 359.094 199.243C359.291 201.386 359.051 203.547 358.388 205.594Z" fill="#0B2F4D"/>
<path d="M397.331 256.351C396.72 256.772 396.063 257.122 395.372 257.394C389.628 259.552 373.652 259.313 371.315 264.994C370.216 267.664 369.953 270.612 369.011 273.345C366.875 279.542 361.236 284.189 354.928 285.936C352.658 286.563 350.307 286.855 348.061 287.553C343.721 288.908 340.127 291.631 336.969 294.938H285.179C285.156 291.498 286.001 288.109 287.635 285.084C289.269 282.059 291.64 279.496 294.527 277.633C300.285 273.996 307.559 273.316 313.212 269.516C316.94 267.008 319.621 263.386 321.748 259.38C323.101 256.759 324.296 254.06 325.327 251.297C326.909 247.186 328.562 242.774 332.156 240.228C333.918 239.081 335.872 238.261 337.924 237.806C343.114 236.447 347.105 237.246 350.885 238.021C355.473 238.959 359.755 239.854 365.504 236.796C375.702 231.369 390.612 204.306 405.513 230.02C411.487 240.333 403.243 252.388 397.331 256.351Z" fill="#2A5A85"/>
<path d="M72.5417 205.594C75.6002 214.874 86.1569 223.119 83.0028 229.944C81.8033 232.538 80.599 235.251 80.0447 238.022C79.685 239.674 79.6251 241.378 79.8678 243.052C81.0052 250.278 87.7579 255.078 94.0374 258.816C94.4245 259.046 94.8164 259.28 95.2082 259.515C101.158 263.085 107.39 267.196 109.301 273.786C110.362 277.447 109.894 281.361 110.334 285.147C110.75 288.626 111.93 291.97 113.789 294.938H153.889C157.449 291.009 157.153 284.405 154.443 279.772C151.542 274.814 146.644 271.445 142.224 267.779C138.405 264.611 134.682 260.797 133.225 256.145C132.993 255.409 132.822 254.655 132.713 253.891C132.36 251.374 132.551 238.515 128.193 230.599C121.454 218.377 110.525 221.387 107.184 214.491C105.904 211.849 104.8 179.388 83.5094 185.384C81.4334 185.94 79.4922 186.914 77.8041 188.245C76.1159 189.577 74.7162 191.239 73.69 193.13C72.6639 195.02 72.0329 197.101 71.8355 199.243C71.6381 201.386 71.8784 203.547 72.5417 205.594Z" fill="#0B2F4D"/>
<path d="M33.5961 256.351C34.2074 256.772 34.8648 257.122 35.5555 257.394C41.2998 259.552 57.2758 259.313 59.6127 264.994C60.7119 267.664 60.9747 270.612 61.9162 273.345C64.0524 279.542 69.6915 284.189 75.9997 285.936C78.2697 286.563 80.621 286.855 82.8671 287.553C87.2064 288.908 90.8001 291.631 93.959 294.938H145.748C145.771 291.498 144.927 288.109 143.292 285.084C141.658 282.059 139.288 279.496 136.401 277.633C130.642 273.996 123.369 273.316 117.715 269.516C113.988 267.008 111.307 263.386 109.18 259.38C107.827 256.759 106.632 254.06 105.601 251.297C104.019 247.186 102.365 242.774 98.7714 240.228C97.0091 239.081 95.0553 238.261 93.0032 237.806C87.8133 236.447 83.8229 237.246 80.0427 238.021C75.4549 238.959 71.173 239.854 65.4239 236.796C55.2256 231.369 40.3153 204.306 25.4146 230.02C19.4428 240.333 27.6865 252.388 33.5961 256.351Z" fill="#2A5A85"/>
<path d="M275.556 4.22241H158.281C149.3 4.22241 142.02 11.5129 142.02 20.5063V274.493C142.02 283.487 149.3 290.777 158.281 290.777H275.556C284.536 290.777 291.817 283.487 291.817 274.493V20.5063C291.817 11.5129 284.536 4.22241 275.556 4.22241Z" fill="white"/>
<path d="M275.556 295H158.281C152.852 294.993 147.647 292.831 143.809 288.986C139.97 285.142 137.811 279.93 137.804 274.493V20.5067C137.811 15.0701 139.97 9.85798 143.809 6.01362C147.647 2.16926 152.852 0.00658616 158.281 0L275.556 0C280.985 0.00658616 286.19 2.16926 290.029 6.01362C293.867 9.85798 296.027 15.0701 296.033 20.5067V274.493C296.027 279.93 293.867 285.142 290.029 288.986C286.19 292.831 280.985 294.993 275.556 295ZM158.281 8.44533C155.088 8.44863 152.026 9.72041 149.768 11.9816C147.509 14.2428 146.239 17.3088 146.236 20.5067V274.493C146.24 277.691 147.51 280.756 149.767 283.017C152.025 285.277 155.086 286.549 158.279 286.553H275.554C278.747 286.549 281.808 285.277 284.065 283.017C286.323 280.756 287.593 277.691 287.597 274.493V20.5067C287.593 17.3094 286.323 14.2442 284.065 11.9834C281.808 9.72256 278.747 8.4507 275.554 8.44677L158.281 8.44533Z" fill="#DEE8F5"/>
<path d="M191.24 4.22241H242.596V14.2011C242.596 15.1819 242.403 16.1531 242.028 17.0593C241.654 17.9655 241.104 18.7888 240.412 19.4823C239.719 20.1759 238.897 20.726 237.992 21.1013C237.087 21.4766 236.117 21.6697 235.138 21.6697H198.698C196.72 21.6697 194.823 20.8827 193.424 19.482C192.026 18.0813 191.24 16.1815 191.24 14.2006V4.22241H191.24Z" fill="#DEE8F5"/>
<path d="M241.513 65.9083C241.513 70.7796 240.07 75.5414 237.367 79.5914C234.664 83.6415 230.823 86.7979 226.328 88.6617C221.834 90.5254 216.889 91.0126 212.118 90.0618C207.347 89.111 202.965 86.7649 199.526 83.32C196.086 79.8752 193.744 75.4864 192.796 70.7086C191.847 65.9308 192.335 60.9787 194.197 56.4784C196.059 51.9781 199.212 48.1318 203.256 45.4258C207.301 42.7199 212.057 41.2758 216.921 41.2763C220.154 41.264 223.358 41.8928 226.348 43.1264C229.337 44.36 232.053 46.174 234.339 48.4638C236.626 50.7536 238.437 53.4739 239.668 56.4679C240.899 59.4619 241.526 62.6704 241.513 65.9083Z" fill="#0B2F4D"/>
<path d="M216.919 68.4463C222.297 68.4463 226.657 64.0802 226.657 58.6945C226.657 53.3087 222.297 48.9426 216.919 48.9426C211.541 48.9426 207.181 53.3087 207.181 58.6945C207.181 64.0802 211.541 68.4463 216.919 68.4463Z" fill="white"/>
<path d="M234.641 82.9841C232.347 85.3731 229.595 87.2738 226.55 88.5723C223.505 89.8708 220.229 90.5403 216.92 90.5407C213.61 90.5412 210.334 89.8725 207.289 88.5749C204.243 87.2772 201.491 85.3773 199.196 82.9889C202.512 75.5663 209.208 70.4934 216.921 70.4934C224.634 70.4934 231.325 75.561 234.641 82.9841Z" fill="white"/>
<path d="M268.736 108.296H165.101V130.936H268.736V108.296Z" fill="#0B2F4D"/>
<path d="M268.736 147.426H165.101V170.066H268.736V147.426Z" fill="#0B2F4D"/>
<path d="M341.914 96.4089C341.914 96.4089 338.071 94.7559 338.071 84.6451L330.346 83.8569C330.346 83.8569 331.938 92.7914 328.322 95.9648L341.914 96.4089Z" fill="#E98862"/>
<path d="M342.07 80.396C341.793 83.4866 340.369 86.5083 337.766 87.7128C334.935 89.1161 331.805 89.8044 328.648 89.7176C320.262 89.7176 320.356 70.614 324.01 66.6026C327.663 62.5912 339.461 63.9738 341.378 70.0201C342.367 73.1499 342.333 77.4547 342.07 80.396Z" fill="#E98862"/>
<path d="M329.904 79.0297C330.287 79.0297 330.597 78.7193 330.597 78.3363C330.597 77.9533 330.287 77.6428 329.904 77.6428C329.522 77.6428 329.212 77.9533 329.212 78.3363C329.212 78.7193 329.522 79.0297 329.904 79.0297Z" fill="#C6E3D8"/>
<path d="M331.265 76.9627C331.248 76.9626 331.232 76.9613 331.215 76.9589L329.377 76.6717C329.333 76.6666 329.291 76.6527 329.254 76.6309C329.216 76.6092 329.182 76.58 329.156 76.5451C329.13 76.5102 329.11 76.4704 329.1 76.4279C329.089 76.3855 329.087 76.3413 329.094 76.2981C329.1 76.2548 329.116 76.2134 329.139 76.1762C329.162 76.139 329.192 76.1068 329.228 76.0816C329.264 76.0564 329.304 76.0387 329.347 76.0295C329.39 76.0203 329.434 76.0198 329.477 76.0281L331.315 76.3152C331.395 76.3277 331.469 76.3703 331.52 76.4344C331.571 76.4986 331.595 76.5796 331.589 76.6613C331.583 76.743 331.547 76.8195 331.487 76.8754C331.427 76.9314 331.349 76.9627 331.267 76.9632L331.265 76.9627Z" fill="#C6E3D8"/>
<path d="M324.475 81.2795C324.475 82.0592 324.784 82.8069 325.334 83.3583C325.885 83.9096 326.632 84.2193 327.41 84.2193C328.189 84.2193 328.936 83.9096 329.486 83.3583C330.037 82.8069 330.346 82.0592 330.346 81.2795C330.359 80.5128 330.067 79.7724 329.535 79.2211C329.003 78.6698 328.274 78.3527 327.509 78.3396C327.476 78.3396 327.443 78.3396 327.41 78.3396C325.32 78.4425 324.475 79.6557 324.475 81.2795Z" fill="#0B2F4D"/>
<path d="M324.45 74.3645C322.822 74.3517 321.198 74.2146 319.591 73.9544C319.591 73.9544 320.083 61.5484 333.24 62.2557C334.948 62.1776 336.66 62.2788 338.347 62.5577C342.301 63.1645 347.908 67.2132 348.813 77.3455C349.227 81.9939 350.827 86.3757 352.048 89.1499C352.193 89.4756 352.253 89.8322 352.225 90.1874C352.197 90.5426 352.081 90.8851 351.887 91.1838C351.693 91.4826 351.428 91.7282 351.115 91.8983C350.803 92.0685 350.453 92.1578 350.097 92.1582L321.91 91.9333C321.577 91.9334 321.248 91.8555 320.95 91.7057C320.653 91.5559 320.394 91.3384 320.195 91.0706C319.996 90.8028 319.863 90.4922 319.805 90.1635C319.748 89.8348 319.768 89.4972 319.864 89.1777C321.397 84.0929 324.204 80.9764 324.45 74.3645Z" fill="#0F1011"/>
<path d="M274.948 126.725C274.948 126.725 268.162 124.841 267.187 123.542C266.212 122.244 268.582 117.872 268.582 117.872C268.582 117.872 261.796 115.09 262.448 113.992C263.22 112.695 271.694 117.335 271.694 117.335C271.694 117.335 269.851 115.154 270.752 114.577C271.123 114.338 271.605 114.598 272.983 116.111C274.552 117.834 277.265 120.279 277.265 120.279L274.948 126.725Z" fill="#E98862"/>
<path d="M308.712 289.762C307.654 280.852 307.654 279.935 307.654 279.634H317.69C317.69 279.604 317.69 279.564 317.69 279.517C317.725 280.261 318.232 284.798 318.68 288.575L308.712 289.762Z" fill="#0B2F4D"/>
<path d="M348.699 290.963C348.699 290.963 348.666 280.556 348.666 279.635H358.701C358.701 280.553 358.735 290.929 358.735 290.929L348.699 290.963Z" fill="#0B2F4D"/>
<path d="M363.235 164.099C363.235 165.525 362.483 170.293 363.693 170.633C364.418 170.838 365.274 167.283 365.274 167.283" fill="#E98862"/>
<path d="M368.945 163.35C368.945 163.35 372.894 172.976 368.389 178.506C368.275 178.647 368.12 178.75 367.946 178.801C367.772 178.853 367.586 178.85 367.413 178.794C367.241 178.738 367.089 178.632 366.977 178.488C366.866 178.344 366.801 178.17 366.79 177.988C366.571 174.26 365.821 166.601 363.366 167.496V161.483" fill="#E98862"/>
<path d="M357.279 225.631C356.31 210.613 354.636 185.422 353.814 170.64H353.95L352.535 146.855L316.178 149.102L315.805 151.653L315.677 151.615C311.416 174.234 309.598 199.248 306.144 222.029C305.901 243.139 305.835 265.23 305.01 286.288L322.692 286.589C322.637 266.019 323.144 244.513 323.75 223.908C326.522 207.756 330.415 189.833 333.54 173.859C336.366 204.981 340.58 255.967 343.706 287.51L361.325 286.019L357.279 225.631Z" fill="#262626"/>
<path d="M336.501 294.85C336.243 294.848 335.988 294.796 335.75 294.697C335.512 294.597 335.297 294.451 335.115 294.267C334.934 294.084 334.79 293.867 334.693 293.628C334.595 293.389 334.546 293.133 334.547 292.875C334.547 292.827 334.549 292.779 334.553 292.731C334.582 292.358 334.717 292 334.942 291.701C335.167 291.402 335.472 291.173 335.823 291.042L347.504 287.124C347.73 287.049 347.97 287.024 348.207 287.05C348.444 287.077 348.672 287.154 348.877 287.277C350.482 288.393 352.403 288.963 354.357 288.904C355.879 288.796 357.339 288.262 358.572 287.362C358.68 287.273 358.812 287.217 358.951 287.2C359.09 287.182 359.231 287.205 359.358 287.266C359.485 287.326 359.591 287.421 359.666 287.54C359.741 287.658 359.781 287.796 359.78 287.936V293.656C359.78 293.996 359.645 294.322 359.405 294.562C359.165 294.803 358.84 294.938 358.5 294.938H358.495L336.501 294.85Z" fill="#0B2F4D"/>
<path d="M296.486 294.85C296.228 294.848 295.973 294.796 295.735 294.697C295.498 294.597 295.282 294.451 295.101 294.267C294.919 294.084 294.776 293.867 294.678 293.628C294.581 293.389 294.531 293.133 294.532 292.875C294.532 292.827 294.534 292.779 294.538 292.731C294.567 292.358 294.702 292 294.927 291.701C295.152 291.402 295.458 291.173 295.809 291.042L307.489 287.124C307.716 287.049 307.956 287.024 308.193 287.05C308.429 287.077 308.658 287.154 308.862 287.277C310.468 288.393 312.389 288.963 314.342 288.904C315.864 288.796 317.325 288.262 318.558 287.362C318.666 287.273 318.798 287.217 318.937 287.199C319.076 287.182 319.217 287.205 319.344 287.265C319.47 287.326 319.577 287.421 319.652 287.54C319.727 287.658 319.766 287.796 319.766 287.936V293.656C319.766 293.996 319.631 294.322 319.391 294.562C319.151 294.803 318.825 294.938 318.486 294.938H318.481L296.486 294.85Z" fill="#0B2F4D"/>
<path d="M366.746 133.738C366.694 133.385 366.605 133.039 366.483 132.704L355.514 102.834L355.448 102.858C354.971 101.388 354.148 100.053 353.048 98.9677C350.865 96.7816 347.084 95.3665 342.479 95.3665C335.624 95.3665 326.262 95.3813 324.343 95.4622C318.481 95.7139 315.741 98.3451 314.621 102.231L300.913 126.874L277.141 118.018L273.643 127.437L301.45 137.799C302.574 138.218 303.81 138.221 304.936 137.805C306.061 137.39 307 136.584 307.583 135.535L315.233 121.782C315.435 123.737 315.587 125.659 315.608 127.49C315.791 143.028 311.602 145.955 313.667 150.705C315.671 155.311 355.015 157.227 355.541 149.118C355.876 143.96 351.336 139.455 351.336 129.401C351.374 127.49 351.626 125.59 352.088 123.736L356.518 135.799L360.866 165.138L371.174 163.607L366.746 133.738Z" fill="#C6E3D8"/>
<path d="M216.919 263.18C235.09 263.18 249.821 248.429 249.821 230.232C249.821 212.035 235.09 197.283 216.919 197.283C198.747 197.283 184.017 212.035 184.017 230.232C184.017 248.429 198.747 263.18 216.919 263.18Z" fill="#0B2F4D"/>
<path d="M196.457 215.554C192.683 245.434 217.442 253.578 217.442 253.578C217.442 253.578 240.174 244.916 237.561 215.627C237.561 215.627 224.296 218.425 217.442 208.41C217.442 208.41 212.404 218.118 196.457 215.554Z" fill="white"/>
<path d="M223.9 227.308H222.906V225.084C222.891 223.503 222.255 221.992 221.133 220.88C220.012 219.767 218.498 219.143 216.919 219.143C215.341 219.143 213.826 219.767 212.705 220.88C211.584 221.992 210.947 223.503 210.933 225.084V227.308H209.939C209.485 227.308 209.049 227.489 208.728 227.811C208.407 228.133 208.226 228.569 208.226 229.024V240.209C208.226 240.664 208.407 241.1 208.728 241.422C209.049 241.744 209.485 241.924 209.939 241.924H223.901C224.355 241.924 224.791 241.744 225.112 241.422C225.433 241.1 225.614 240.664 225.614 240.209V229.024C225.614 228.799 225.569 228.576 225.483 228.367C225.397 228.159 225.271 227.97 225.112 227.811C224.952 227.651 224.763 227.525 224.556 227.439C224.348 227.353 224.125 227.308 223.9 227.308ZM212.879 225.084C212.89 224.019 213.321 223.001 214.078 222.251C214.834 221.502 215.855 221.082 216.919 221.082C217.983 221.082 219.004 221.502 219.761 222.251C220.517 223.001 220.948 224.019 220.96 225.084V227.308H212.879V225.084Z" fill="#0B2F4D"/>
<path d="M175.351 123.267C177.365 123.267 178.998 121.633 178.998 119.616C178.998 117.599 177.365 115.964 175.351 115.964C173.338 115.964 171.705 117.599 171.705 119.616C171.705 121.633 173.338 123.267 175.351 123.267Z" fill="white"/>
<path d="M186.299 123.267C188.313 123.267 189.946 121.633 189.946 119.616C189.946 117.599 188.313 115.964 186.299 115.964C184.285 115.964 182.653 117.599 182.653 119.616C182.653 121.633 184.285 123.267 186.299 123.267Z" fill="white"/>
<path d="M197.247 123.267C199.261 123.267 200.893 121.633 200.893 119.616C200.893 117.599 199.261 115.964 197.247 115.964C195.233 115.964 193.601 117.599 193.601 119.616C193.601 121.633 195.233 123.267 197.247 123.267Z" fill="white"/>
<path d="M208.195 123.267C210.209 123.267 211.842 121.633 211.842 119.616C211.842 117.599 210.209 115.964 208.195 115.964C206.181 115.964 204.549 117.599 204.549 119.616C204.549 121.633 206.181 123.267 208.195 123.267Z" fill="white"/>
<path d="M219.143 123.267C221.157 123.267 222.789 121.633 222.789 119.616C222.789 117.599 221.157 115.964 219.143 115.964C217.129 115.964 215.497 117.599 215.497 119.616C215.497 121.633 217.129 123.267 219.143 123.267Z" fill="white"/>
<path d="M230.091 123.267C232.104 123.267 233.737 121.633 233.737 119.616C233.737 117.599 232.104 115.964 230.091 115.964C228.077 115.964 226.444 117.599 226.444 119.616C226.444 121.633 228.077 123.267 230.091 123.267Z" fill="white"/>
<path d="M240.648 123.267C242.662 123.267 244.295 121.633 244.295 119.616C244.295 117.599 242.662 115.964 240.648 115.964C238.634 115.964 237.002 117.599 237.002 119.616C237.002 121.633 238.634 123.267 240.648 123.267Z" fill="white"/>
<path d="M175.351 162.397C177.365 162.397 178.998 160.762 178.998 158.746C178.998 156.729 177.365 155.094 175.351 155.094C173.338 155.094 171.705 156.729 171.705 158.746C171.705 160.762 173.338 162.397 175.351 162.397Z" fill="white"/>
<path d="M186.299 162.397C188.313 162.397 189.946 160.762 189.946 158.746C189.946 156.729 188.313 155.094 186.299 155.094C184.285 155.094 182.653 156.729 182.653 158.746C182.653 160.762 184.285 162.397 186.299 162.397Z" fill="white"/>
<path d="M197.247 162.397C199.261 162.397 200.893 160.762 200.893 158.746C200.893 156.729 199.261 155.094 197.247 155.094C195.233 155.094 193.601 156.729 193.601 158.746C193.601 160.762 195.233 162.397 197.247 162.397Z" fill="white"/>
<path d="M208.195 162.397C210.209 162.397 211.842 160.762 211.842 158.746C211.842 156.729 210.209 155.094 208.195 155.094C206.181 155.094 204.549 156.729 204.549 158.746C204.549 160.762 206.181 162.397 208.195 162.397Z" fill="white"/>
<path d="M219.143 162.397C221.157 162.397 222.789 160.762 222.789 158.746C222.789 156.729 221.157 155.094 219.143 155.094C217.129 155.094 215.497 156.729 215.497 158.746C215.497 160.762 217.129 162.397 219.143 162.397Z" fill="white"/>
<path d="M230.091 162.397C232.104 162.397 233.737 160.762 233.737 158.746C233.737 156.729 232.104 155.094 230.091 155.094C228.077 155.094 226.444 156.729 226.444 158.746C226.444 160.762 228.077 162.397 230.091 162.397Z" fill="white"/>
</g>
<defs>
<clipPath id="clip0_1_1169">
<rect width="428" height="295" fill="white"/>
</clipPath>
</defs>
</svg>
