<svg width="356" height="360" viewBox="0 0 356 360" fill="none" xmlns="http://www.w3.org/2000/svg">
<g clip-path="url(#clip0_1_996)">
<path d="M255.216 360C310.878 360 356 355.652 356 350.289C356 344.926 310.878 340.579 255.216 340.579C199.555 340.579 154.433 344.926 154.433 350.289C154.433 355.652 199.555 360 255.216 360Z" fill="white"/>
<path opacity="0.1" d="M255.216 360C310.878 360 356 355.652 356 350.289C356 344.926 310.878 340.579 255.216 340.579C199.555 340.579 154.433 344.926 154.433 350.289C154.433 355.652 199.555 360 255.216 360Z" fill="#0B2C49"/>
<path d="M87.9109 205.886H55.7856V215.646H87.9109V205.886Z" fill="#D0D0D0"/>
<path opacity="0.05" d="M64.3089 205.886H60.0996V215.646H64.3089V205.886Z" fill="#0B2C49"/>
<path d="M83.806 208.007H66.3032V213.791H83.806V208.007Z" fill="white"/>
<path d="M113.535 207.159L83.6851 193.546L79.9438 202.49L109.794 216.103L113.535 207.159Z" fill="#D0D0D0"/>
<path opacity="0.05" d="M113.535 207.159L83.6851 193.546L79.9438 202.49L109.794 216.103L113.535 207.159Z" fill="#0B2C49"/>
<path d="M109.527 205.331L105.615 203.547L101.874 212.491L105.785 214.275L109.527 205.331Z" fill="white"/>
<path d="M102.949 204.646L86.686 197.229L84.469 202.53L100.732 209.946L102.949 204.646Z" fill="white"/>
<path opacity="0.05" d="M113.591 329.529H105.518V335.158H113.591V329.529Z" fill="#0B2C49"/>
<path opacity="0.05" d="M31.0516 329.529H22.9785V335.158H31.0516V329.529Z" fill="#0B2C49"/>
<path d="M120.991 216.104H15.5786V329.338H120.991V216.104Z" fill="#D0D0D0"/>
<path opacity="0.03" d="M120.991 216.104H15.5786V329.338H120.991V216.104Z" fill="#0B2C49"/>
<path d="M140.526 216.104H35.1133V329.338H140.526V216.104Z" fill="#D0D0D0"/>
<path opacity="0.05" d="M133.125 329.529H125.052V335.158H133.125V329.529Z" fill="#0B2C49"/>
<path opacity="0.05" d="M50.5868 329.529H42.5137V335.158H50.5868V329.529Z" fill="#0B2C49"/>
<path opacity="0.7" d="M136.569 221.407H39.0703V243.162H136.569V221.407Z" fill="white"/>
<path opacity="0.7" d="M136.569 248.486H39.0703V270.241H136.569V248.486Z" fill="white"/>
<path opacity="0.7" d="M136.569 275.565H39.0703V297.32H136.569V275.565Z" fill="white"/>
<path opacity="0.05" d="M87.8199 235.328C89.4299 235.328 90.735 233.966 90.735 232.284C90.735 230.603 89.4299 229.24 87.8199 229.24C86.2099 229.24 84.9048 230.603 84.9048 232.284C84.9048 233.966 86.2099 235.328 87.8199 235.328Z" fill="#0B2C49"/>
<path opacity="0.05" d="M87.8199 262.408C89.4299 262.408 90.735 261.045 90.735 259.364C90.735 257.683 89.4299 256.32 87.8199 256.32C86.2099 256.32 84.9048 257.683 84.9048 259.364C84.9048 261.045 86.2099 262.408 87.8199 262.408Z" fill="#0B2C49"/>
<path opacity="0.05" d="M87.8199 289.487C89.4299 289.487 90.735 288.124 90.735 286.443C90.735 284.762 89.4299 283.399 87.8199 283.399C86.2099 283.399 84.9048 284.762 84.9048 286.443C84.9048 288.124 86.2099 289.487 87.8199 289.487Z" fill="#0B2C49"/>
<path opacity="0.7" d="M136.569 303.255H39.0703V325.01H136.569V303.255Z" fill="white"/>
<path opacity="0.05" d="M87.8199 317.177C89.4299 317.177 90.735 315.814 90.735 314.133C90.735 312.452 89.4299 311.089 87.8199 311.089C86.2099 311.089 84.9048 312.452 84.9048 314.133C84.9048 315.814 86.2099 317.177 87.8199 317.177Z" fill="#0B2C49"/>
<path d="M52.9984 103.714L115.33 103.714L115.33 18.9978L52.9984 18.9978L52.9984 103.714Z" fill="#D0D0D0"/>
<path d="M52.9986 18.9978H50.9766V103.714H52.9986V18.9978Z" fill="#D0D0D0"/>
<path opacity="0.05" d="M52.9986 18.9978H50.9766V103.714H52.9986V18.9978Z" fill="#0B2C49"/>
<path opacity="0.05" d="M64.3531 88.2815H103.975V34.4296L64.3531 34.4296V88.2815Z" fill="#0B2C49"/>
<path opacity="0.03" d="M64.3531 88.2815H66.418V34.4296H64.3531V88.2815Z" fill="#0B2C49"/>
<path d="M2.02143 178.264H52.998L52.998 124.546H2.02143L2.02143 178.264Z" fill="#D0D0D0"/>
<path opacity="0.05" d="M11.308 168.479H43.7124L43.7124 134.332H11.308L11.308 168.479Z" fill="#0B2C49"/>
<path d="M2.02207 124.547H0V178.264H2.02207V124.547Z" fill="#D0D0D0"/>
<path opacity="0.05" d="M2.02207 124.547H0V178.264H2.02207V124.547Z" fill="#0B2C49"/>
<path opacity="0.03" d="M11.3077 168.479H13.3726L13.3726 134.332H11.3077L11.3077 168.479Z" fill="#0B2C49"/>
<path d="M312.87 18.7961H182.795V154.618H312.87V18.7961Z" fill="#D0D0D0"/>
<path d="M182.795 18.7961H181.304V154.618H182.795V18.7961Z" fill="#D0D0D0"/>
<path opacity="0.05" d="M182.795 18.7961H181.304V154.618H182.795V18.7961Z" fill="#0B2C49"/>
<path opacity="0.05" d="M214.307 112.388V76.8528H242.184V97.4984H285.365V134.053H303.718V154.618H285.365H281.83H189.052V112.388H214.307Z" fill="#0B2C49"/>
<path opacity="0.34" d="M238.605 80.7112H218.305V84.5694H238.605V80.7112Z" fill="#FFFFFA"/>
<path opacity="0.34" d="M238.605 88.7065H218.305V92.5648H238.605V88.7065Z" fill="#FFFFFA"/>
<path opacity="0.34" d="M238.605 96.7021H218.305V100.56H238.605V96.7021Z" fill="#FFFFFA"/>
<path opacity="0.34" d="M196.394 116.134H192.652V119.992H196.394V116.134Z" fill="#FFFFFA"/>
<path opacity="0.34" d="M196.394 124.129H192.652V127.987H196.394V124.129Z" fill="#FFFFFA"/>
<path opacity="0.34" d="M196.394 132.124H192.652V135.982H196.394V132.124Z" fill="#FFFFFA"/>
<path opacity="0.34" d="M203.316 116.134H199.574V119.992H203.316V116.134Z" fill="#FFFFFA"/>
<path opacity="0.34" d="M203.316 124.129H199.574V127.987H203.316V124.129Z" fill="#FFFFFA"/>
<path opacity="0.34" d="M203.316 132.124H199.574V135.982H203.316V132.124Z" fill="#FFFFFA"/>
<path opacity="0.34" d="M210.051 116.134H206.309V119.992H210.051V116.134Z" fill="#FFFFFA"/>
<path opacity="0.34" d="M210.051 124.129H206.309V127.987H210.051V124.129Z" fill="#FFFFFA"/>
<path opacity="0.34" d="M210.051 132.124H206.309V135.982H210.051V132.124Z" fill="#FFFFFA"/>
<path d="M182.795 85.9449H208.968V18.7957H211.133V85.9449H281.829V18.7957H283.994V85.9449H312.87V88.205H283.994V154.618H281.829V88.205H211.133V154.618H208.968V88.205H182.795V85.9449Z" fill="white"/>
<path d="M318.052 154.454H177.613V158.971H318.052V154.454Z" fill="#D0D0D0"/>
<path opacity="0.1" d="M318.052 154.454H177.613V158.971H318.052V154.454Z" fill="#0B2C49"/>
<path opacity="0.1" d="M177.613 154.454H175.585V158.971H177.613V154.454Z" fill="#0B2C49"/>
<path opacity="0.1" d="M177.613 154.454H175.585V158.971H177.613V154.454Z" fill="#0B2C49"/>
<path d="M290.565 177.722C270.652 177.722 254.508 183.395 254.508 190.393V205.477H326.623V190.393C326.623 183.395 310.479 177.722 290.565 177.722Z" fill="#C6E3D8"/>
<path opacity="0.49" d="M290.565 177.722C270.652 177.722 254.508 183.395 254.508 190.393V205.477H326.623V190.393C326.623 183.395 310.479 177.722 290.565 177.722Z" fill="white"/>
<path opacity="0.49" d="M316.8 190.394V205.476H254.507V190.394C254.507 183.98 268.065 178.68 285.654 177.843C303.244 178.68 316.8 183.98 316.8 190.394Z" fill="white"/>
<path d="M326.623 352.046H327.833L326.623 204.139L325.423 205.403L326.278 308.72L283.56 309.478L282.698 205.392L281.498 205.403L282.36 309.499L256.573 309.957L255.707 205.392L254.507 204.15L255.718 352.046L256.907 352.035L256.583 311.21L282.37 310.752L282.698 352.046L283.898 352.035L283.57 310.731L326.289 309.972L326.623 352.046Z" fill="#0B2C49"/>
<path d="M217.861 329.902C217.861 329.902 215.716 341.508 205.309 342.155C194.901 342.802 197.158 351.459 197.158 351.459H236.93V330.711L217.861 329.902Z" fill="#C6E3D8"/>
<path d="M240.552 294.991C240.552 294.991 243.534 306.395 234.469 311.772C225.404 317.15 231.089 323.878 231.089 323.878L266.776 305.545L258.005 286.927L240.552 294.991Z" fill="#C6E3D8"/>
<path d="M236.776 302.528L209.886 196.586C207.847 184.882 210.917 179.809 215.649 174.881C223.962 166.223 258.409 147.795 258.409 147.795L299.734 147.677C310.693 147.677 321.464 158.959 321.464 170.401C321.464 181.843 310.325 191.546 299.367 191.546L248.478 196.85L262.273 293.854L236.776 302.528Z" fill="#262626"/>
<path d="M262.272 293.853L256.841 255.664L229.329 273.188L236.776 302.528L262.272 293.853Z" fill="black"/>
<path d="M268.508 169.233C268.508 169.233 251.136 173.276 233.931 191.241C223.499 202.134 224.355 221.845 225.92 259.756L243.008 233.401L261.751 198.105L268.508 169.233Z" fill="black"/>
<path d="M328.658 147.665L300.593 147.527L300.582 147.913H292.084C292.084 147.913 270.796 168.366 253.659 181.254C241.193 190.629 233.588 199.566 232.93 209.307C231.326 233.053 213.234 334.324 213.234 334.324L240.462 338.629L264.357 217.602C264.357 217.602 301.719 199.615 310.361 193.358C318.499 187.464 324.248 185.185 326.941 178.754C331.592 167.645 328.658 147.665 328.658 147.665Z" fill="#262626"/>
<path d="M297.172 155.047L251.644 155.676L277.183 171.604L298.434 160.145C298.946 159.858 299.351 159.4 299.584 158.844C299.817 158.288 299.865 157.666 299.719 157.079C299.574 156.491 299.244 155.972 298.782 155.603C298.32 155.235 297.753 155.039 297.172 155.047Z" fill="#0B2C49"/>
<path opacity="0.2" d="M297.172 155.047L251.644 155.676L277.183 171.604L298.434 160.145C298.946 159.858 299.351 159.4 299.584 158.844C299.817 158.288 299.865 157.666 299.719 157.079C299.574 156.491 299.244 155.972 298.782 155.603C298.32 155.235 297.753 155.039 297.172 155.047Z" fill="white"/>
<path d="M251.904 69.759L239.026 113.328L213.232 148.592L228.3 166.652L258.987 130.889C260.4 129.722 261.506 128.199 262.2 126.462L262.678 125.254L280.403 80.4727L251.904 69.759Z" fill="#C6E3D8"/>
<path d="M271.742 23.5113C271.742 23.5113 266.553 19.4188 265.268 10.0059C264.272 2.71746 270.711 7.43932 270.711 7.43932C270.711 7.43932 270.043 2.18376 273.71 2.70535C277.378 3.22694 279.429 8.74768 279.429 8.74768" fill="black"/>
<path d="M292.663 3.32056C292.663 3.32056 310.858 5.35722 304.28 31.1017L302.671 31.2145L299.402 31.4433" fill="black"/>
<path d="M274.79 57.9879C274.87 57.977 275.758 73.3557 292.867 72.0165C304.714 71.0898 308.937 57.9662 309.209 57.9662C307.932 57.6826 306.353 57.2525 305.726 57.1051C304.359 56.7738 303.12 56.0157 302.176 54.9316C301.232 53.8475 300.626 52.4889 300.439 51.0364C300.092 48.8565 300.679 37.7031 300.499 35.4973L282.317 39.7352C282.572 44.394 284.35 55.1937 278.118 57.1051C277.08 57.4208 275.963 57.7131 274.79 57.9879Z" fill="#E98862"/>
<path opacity="0.52" d="M282.062 52.6914C282.347 51.7328 282.53 50.7446 282.609 49.7443C282.809 47.4619 282.768 45.1635 282.489 42.8902C286.185 42.3701 289.667 40.7779 292.54 38.2944C292.878 39.5965 294.735 45.286 294.22 46.5213C293.249 48.8598 288.682 52.6914 282.062 52.6914Z" fill="black"/>
<path d="M285.815 49.6475C292.989 48.9755 301.575 44.2428 301.699 34.0745L301.811 24.8998C301.935 14.7319 296.92 6.42113 287.752 6.29919C278.583 6.17767 271.63 14.3293 271.506 24.4976L271.457 28.5592C271.463 29.9542 271.56 31.3471 271.748 32.7282C272.218 36.3822 272.948 41.9376 275.322 45.6957C277.565 49.2436 281.232 50.0763 285.815 49.6475Z" fill="#E98862"/>
<path opacity="0.52" d="M282.487 40.3534C281.006 40.4235 279.531 40.1292 278.179 39.4944C278.124 39.4684 278.081 39.4208 278.059 39.3619C278.037 39.303 278.038 39.2374 278.062 39.1793C278.085 39.1211 278.13 39.075 278.186 39.0507C278.242 39.0265 278.305 39.0261 278.361 39.0497C281.273 40.3463 283.917 40.1567 286.007 38.5009C286.049 38.4661 286.093 38.4336 286.138 38.4036C286.19 38.3778 286.25 38.3735 286.306 38.3917C286.361 38.4099 286.408 38.4492 286.437 38.5017C286.466 38.5543 286.475 38.6163 286.462 38.6755C286.45 38.7347 286.416 38.7867 286.368 38.8212C286.351 38.8321 286.324 38.8542 286.288 38.8843C285.189 39.7583 283.866 40.2698 282.487 40.3534Z" fill="black"/>
<path opacity="0.52" d="M282.555 42.644C282.287 42.6612 282.019 42.6545 281.752 42.6239C281.722 42.6206 281.693 42.6111 281.666 42.5959C281.639 42.5808 281.616 42.5603 281.597 42.5356C281.578 42.5109 281.563 42.4826 281.555 42.4522C281.546 42.4218 281.543 42.3899 281.547 42.3583C281.55 42.3268 281.559 42.2962 281.574 42.2684C281.588 42.2405 281.608 42.2159 281.631 42.196C281.655 42.1761 281.682 42.1612 281.711 42.1522C281.74 42.1433 281.771 42.1404 281.801 42.1437C283.403 42.3212 284.168 41.5549 284.201 41.5219C284.244 41.4765 284.303 41.451 284.364 41.4509C284.426 41.4508 284.484 41.4762 284.528 41.5215C284.571 41.5667 284.596 41.6281 284.596 41.6922C284.596 41.7562 284.572 41.8177 284.528 41.8631C283.976 42.3537 283.279 42.6296 282.555 42.644Z" fill="black"/>
<path d="M274.533 30.5146C275.157 30.5146 275.663 29.9866 275.663 29.3353C275.663 28.684 275.157 28.156 274.533 28.156C273.909 28.156 273.404 28.684 273.404 29.3353C273.404 29.9866 273.909 30.5146 274.533 30.5146Z" fill="black"/>
<path d="M285.567 29.7917C286.191 29.7917 286.697 29.2637 286.697 28.6124C286.697 27.9611 286.191 27.4331 285.567 27.4331C284.944 27.4331 284.438 27.9611 284.438 28.6124C284.438 29.2637 284.944 29.7917 285.567 29.7917Z" fill="black"/>
<path d="M301.092 37.1669C303.878 37.204 306.175 34.1213 306.211 31.2118C306.248 28.3024 304.007 26.6679 301.221 26.6311L299.761 28.5613L298.697 37.1351L301.092 37.1669Z" fill="#E98862"/>
<path d="M298.32 32.4899C298.32 32.4899 297.379 18.1021 293.201 17.2135C290.418 16.6217 283.67 20.7435 277.419 19.4986C274.685 18.9557 272.089 19.6606 271.825 21.0095C271.72 21.5436 270.017 13.8684 274.299 8.04534C277.708 3.40992 288.865 2.09864 293.941 3.61873C307.997 7.82902 301.794 27.2623 301.794 27.2623L301.168 32.2226L298.32 32.4899Z" fill="black"/>
<g opacity="0.52">
<path d="M280.803 36.9583C280.797 36.9587 280.791 36.9587 280.785 36.9583C279.887 36.9491 278.382 36.8284 278.388 36.1273C278.394 35.546 279.978 29.289 280.159 28.5774C280.174 28.5161 280.212 28.4638 280.265 28.432C280.317 28.4002 280.38 28.3914 280.438 28.4076C280.497 28.4239 280.547 28.4637 280.578 28.5185C280.608 28.5733 280.616 28.6385 280.601 28.6997C279.897 31.471 278.849 35.7372 278.845 36.1331C278.932 36.3002 279.859 36.4722 280.789 36.4822C280.848 36.4835 280.903 36.5083 280.945 36.5514C280.987 36.5946 281.011 36.6527 281.013 36.7139C281.014 36.7752 280.994 36.8347 280.955 36.8804C280.915 36.926 280.861 36.9542 280.803 36.9591V36.9583Z" fill="black"/>
</g>
<path d="M277.739 22.941C276.796 22.6697 275.799 22.6697 274.855 22.941C274.392 23.0711 273.95 23.2733 273.544 23.5406C273.143 23.8024 272.774 24.1162 272.448 24.4744C272.388 24.5382 272.354 24.6238 272.353 24.7133C272.351 24.8028 272.383 24.8894 272.441 24.955C272.5 25.0206 272.58 25.0602 272.666 25.0656C272.751 25.071 272.836 25.0417 272.901 24.9839L272.921 24.9655C273.223 24.6735 273.559 24.4225 273.921 24.2184C274.276 24.0153 274.659 23.8694 275.056 23.7858C275.837 23.6147 276.648 23.6621 277.406 23.9232L277.438 23.9349C277.562 23.9766 277.697 23.9662 277.814 23.9058C277.93 23.8454 278.02 23.7398 278.064 23.6114C278.107 23.4831 278.101 23.3421 278.046 23.2184C277.992 23.0948 277.893 22.9982 277.771 22.9493L277.739 22.941Z" fill="black"/>
<path d="M284.421 23.5327C285.139 23.1684 285.937 23.0086 286.733 23.0696C287.137 23.097 287.535 23.1882 287.913 23.3402C288.297 23.4924 288.662 23.6945 288.998 23.9415L289.019 23.9566C289.092 24.0051 289.179 24.0227 289.263 24.0057C289.347 23.9886 289.422 23.9382 289.472 23.865C289.521 23.7918 289.542 23.7014 289.529 23.6127C289.517 23.5241 289.472 23.4439 289.404 23.3891C289.035 23.0794 288.63 22.8197 288.199 22.6161C287.762 22.4076 287.298 22.2688 286.822 22.2043C285.852 22.0663 284.865 22.2044 283.964 22.604C283.904 22.6314 283.849 22.6709 283.803 22.7204C283.758 22.7699 283.722 22.8283 283.698 22.8923C283.673 22.9562 283.662 23.0246 283.663 23.0933C283.664 23.1621 283.678 23.2299 283.704 23.293C283.757 23.4204 283.857 23.5205 283.98 23.5714C284.042 23.5966 284.107 23.609 284.173 23.6078C284.239 23.6066 284.304 23.5919 284.364 23.5644L284.392 23.5507L284.421 23.5327Z" fill="black"/>
<path d="M283.964 8.11083C284.598 4.94113 283.44 2.00681 281.378 1.55687C279.315 1.10694 277.129 3.31176 276.495 6.48146C275.861 9.65116 277.019 12.5855 279.081 13.0354C281.143 13.4853 283.33 11.2805 283.964 8.11083Z" fill="black"/>
<path d="M253.53 91.7898C254.069 98.4013 257.889 139.652 258.409 147.796H328.627C329.031 140.45 330.842 108.332 332.372 93.9663C333.833 80.2597 335.88 74.0223 334.197 69.7632C331.231 62.2505 321.787 58.8959 315.393 57.9917C311.488 57.4397 305.615 57.0442 305.615 57.0442C305.615 57.0442 305.118 67.5482 293.26 68.1329C277.119 68.9263 278.197 57.0442 278.117 57.0442C275.502 57.0442 261.269 59.0299 257.709 61.452C252.683 64.873 251.197 69.5356 251.138 73.819C251.071 78.7521 252.919 84.29 253.53 91.7898Z" fill="#C6E3D8"/>
<path d="M257.09 131.54C257.04 131.54 256.992 131.521 256.955 131.485C256.918 131.45 256.895 131.402 256.89 131.349L254.23 99.578C254.225 99.5228 254.242 99.468 254.276 99.4256C254.31 99.3831 254.359 99.3565 254.411 99.3517C254.438 99.3488 254.464 99.3516 254.489 99.3597C254.515 99.3678 254.538 99.3811 254.558 99.3988C254.578 99.4165 254.595 99.4383 254.607 99.4628C254.619 99.4874 254.626 99.5142 254.628 99.5417L257.288 131.313C257.293 131.368 257.276 131.423 257.242 131.465C257.208 131.508 257.16 131.534 257.107 131.539C257.101 131.54 257.096 131.54 257.09 131.54Z" fill="black"/>
<path d="M262.182 149.995L271.823 141.827L270.201 142.306C269.674 142.449 269.115 142.379 268.636 142.109C268.157 141.838 267.795 141.388 267.621 140.849C267.541 140.568 267.517 140.272 267.55 139.981C267.583 139.689 267.672 139.408 267.812 139.154C267.953 138.899 268.141 138.678 268.367 138.502C268.592 138.326 268.849 138.2 269.122 138.132L289.377 132.988L291.12 139.725C291.662 141.817 291.593 144.03 290.922 146.081C290.25 148.132 289.008 149.927 287.354 151.236L279.849 157.15C279.464 157.465 278.988 157.631 278.5 157.622C278.011 157.612 277.541 157.426 277.169 157.097C276.838 156.791 276.61 156.383 276.518 155.932C276.425 155.481 276.473 155.011 276.654 154.591C276.622 154.581 276.592 154.562 276.569 154.536C276.549 154.511 276.535 154.48 276.529 154.448C276.523 154.416 276.524 154.382 276.533 154.351L275.151 155.444C274.723 155.796 274.184 155.966 273.641 155.919C273.099 155.872 272.594 155.612 272.228 155.191C271.914 154.802 271.741 154.311 271.74 153.803C271.738 153.294 271.909 152.802 272.221 152.412C272.199 152.408 272.178 152.401 272.159 152.39L271.591 152.839C271.207 153.154 270.73 153.32 270.242 153.311C269.754 153.301 269.284 153.115 268.911 152.786C268.51 152.415 268.262 151.896 268.22 151.339C268.177 150.782 268.342 150.229 268.682 149.796C268.674 149.784 268.667 149.771 268.662 149.757L264.646 153.159C264.447 153.327 264.218 153.453 263.973 153.529C263.727 153.606 263.469 153.631 263.214 153.603C262.959 153.575 262.712 153.495 262.487 153.368C262.261 153.24 262.062 153.068 261.901 152.86C261.739 152.652 261.619 152.413 261.546 152.156C261.473 151.9 261.449 151.631 261.475 151.365C261.502 151.098 261.578 150.84 261.701 150.605C261.823 150.37 261.988 150.162 262.187 149.993L262.182 149.995Z" fill="#E98862"/>
<path opacity="0.2" d="M268.902 149.879C268.923 149.871 268.943 149.859 268.96 149.844L272.823 146.493C272.843 146.476 272.859 146.455 272.871 146.431C272.883 146.408 272.89 146.382 272.893 146.355C272.895 146.329 272.892 146.302 272.885 146.276C272.877 146.251 272.865 146.227 272.848 146.207C272.832 146.186 272.812 146.169 272.789 146.157C272.767 146.145 272.742 146.137 272.717 146.135C272.691 146.132 272.666 146.135 272.641 146.143C272.617 146.151 272.594 146.164 272.575 146.181L268.712 149.532C268.677 149.562 268.653 149.605 268.645 149.652C268.637 149.699 268.645 149.747 268.667 149.788C268.69 149.83 268.726 149.862 268.769 149.878C268.812 149.895 268.859 149.895 268.902 149.879Z" fill="#0A0A0A"/>
<path opacity="0.2" d="M272.306 152.41C272.327 152.402 272.347 152.391 272.364 152.376L275.419 149.767C275.459 149.733 275.485 149.683 275.49 149.63C275.495 149.576 275.48 149.523 275.447 149.481C275.414 149.439 275.367 149.413 275.316 149.408C275.265 149.402 275.213 149.418 275.173 149.452L272.118 152.061C272.082 152.092 272.058 152.134 272.049 152.181C272.041 152.228 272.048 152.277 272.071 152.319C272.094 152.361 272.13 152.393 272.173 152.409C272.216 152.426 272.263 152.426 272.306 152.41Z" fill="#0A0A0A"/>
<path opacity="0.2" d="M276.779 154.597C276.801 154.589 276.822 154.576 276.84 154.56L278.255 153.293C278.275 153.276 278.291 153.254 278.302 153.231C278.314 153.207 278.321 153.181 278.323 153.155C278.325 153.128 278.322 153.101 278.314 153.076C278.306 153.051 278.293 153.027 278.276 153.007C278.26 152.987 278.24 152.97 278.217 152.958C278.194 152.946 278.169 152.939 278.144 152.937C278.119 152.935 278.093 152.938 278.069 152.946C278.044 152.955 278.022 152.968 278.003 152.985L276.587 154.253C276.553 154.283 276.53 154.326 276.522 154.373C276.515 154.419 276.523 154.467 276.546 154.508C276.569 154.549 276.604 154.58 276.647 154.597C276.69 154.613 276.736 154.613 276.779 154.597Z" fill="#0A0A0A"/>
<path d="M347.397 129.988L347.323 129.646L334.506 70.4534L309.15 76.4385L319.154 122.642L279.081 132.924L284.013 156.534L337.414 145.899C337.534 145.874 337.712 145.837 337.834 145.808C339.457 145.425 340.991 144.712 342.35 143.709C343.709 142.707 344.865 141.435 345.753 139.966C346.641 138.497 347.243 136.86 347.525 135.148C347.807 133.436 347.764 131.683 347.397 129.988Z" fill="#C6E3D8"/>
<path d="M278.885 132.969C278.874 132.916 278.884 132.86 278.912 132.815C278.939 132.769 278.983 132.736 279.033 132.723L318.927 122.492L312.441 92.5761C312.434 92.5489 312.432 92.5204 312.435 92.4923C312.439 92.4643 312.448 92.4373 312.462 92.413C312.476 92.3887 312.494 92.3675 312.516 92.3509C312.538 92.3343 312.563 92.3225 312.589 92.3162C312.616 92.31 312.643 92.3094 312.67 92.3145C312.696 92.3196 312.722 92.3303 312.744 92.346C312.767 92.3617 312.786 92.382 312.801 92.4057C312.816 92.4294 312.826 92.456 312.83 92.4838L319.361 122.599C319.373 122.653 319.364 122.709 319.336 122.756C319.309 122.803 319.265 122.837 319.213 122.85L279.316 133.081C279.316 133.081 279.583 134.299 279.659 134.71C279.665 134.763 279.65 134.817 279.618 134.859C279.586 134.902 279.539 134.929 279.488 134.935C279.437 134.941 279.385 134.926 279.345 134.893C279.305 134.859 279.279 134.81 279.273 134.757C279.181 134.306 278.885 132.969 278.885 132.969Z" fill="black"/>
<path d="M280.449 165.939L265.041 116.485C264.771 115.615 264.244 114.858 263.535 114.321C262.827 113.784 261.975 113.495 261.099 113.495H198.328C197.674 113.495 197.029 113.657 196.446 113.967C195.863 114.277 195.358 114.727 194.974 115.28C194.589 115.833 194.336 116.473 194.233 117.147C194.131 117.822 194.184 118.513 194.386 119.163L209.794 168.617C210.065 169.486 210.592 170.243 211.3 170.78C212.008 171.317 212.861 171.606 213.736 171.606H276.507C277.161 171.606 277.806 171.445 278.389 171.134C278.972 170.824 279.476 170.374 279.861 169.821C280.245 169.268 280.499 168.628 280.601 167.954C280.704 167.279 280.651 166.588 280.449 165.939Z" fill="#0B2C49"/>
<path opacity="0.2" d="M280.449 165.939L265.041 116.485C264.771 115.615 264.244 114.858 263.535 114.321C262.827 113.784 261.975 113.495 261.099 113.495H198.328C197.674 113.495 197.029 113.657 196.446 113.967C195.863 114.277 195.358 114.727 194.974 115.28C194.589 115.833 194.336 116.473 194.233 117.147C194.131 117.822 194.184 118.513 194.386 119.163L209.794 168.617C210.065 169.486 210.592 170.243 211.3 170.78C212.008 171.317 212.861 171.606 213.736 171.606H276.507C277.161 171.606 277.806 171.445 278.389 171.134C278.972 170.824 279.476 170.374 279.861 169.821C280.245 169.268 280.499 168.628 280.601 167.954C280.704 167.279 280.651 166.588 280.449 165.939Z" fill="white"/>
<path d="M235.609 149.425C239.245 149.425 242.193 146.347 242.193 142.551C242.193 138.754 239.245 135.677 235.609 135.677C231.973 135.677 229.026 138.754 229.026 142.551C229.026 146.347 231.973 149.425 235.609 149.425Z" fill="white"/>
<path d="M173.635 5.22583H49.0494C43.2776 5.22583 38.5986 10.1115 38.5986 16.1383V174.064C38.5986 180.091 43.2776 184.977 49.0494 184.977H173.635C179.406 184.977 184.085 180.091 184.085 174.064V16.1383C184.085 10.1115 179.406 5.22583 173.635 5.22583Z" fill="#0B2C49"/>
<path d="M178.239 0.417725H53.6538C47.8821 0.417725 43.2031 5.30339 43.2031 11.3302V169.256C43.2031 175.283 47.8821 180.168 53.6538 180.168H178.239C184.011 180.168 188.69 175.283 188.69 169.256V11.3302C188.69 5.30339 184.011 0.417725 178.239 0.417725Z" fill="white"/>
<path d="M178.239 180.586H53.6539C50.777 180.583 48.0189 179.388 45.9847 177.264C43.9505 175.139 42.8063 172.259 42.8032 169.255V11.33C42.8064 8.32615 43.9506 5.44624 45.9848 3.32216C48.019 1.19808 50.7771 0.00331605 53.6539 0L178.239 0C181.116 0.00342657 183.874 1.19824 185.908 3.3223C187.942 5.44637 189.086 8.32622 189.089 11.33V169.255C189.086 172.259 187.942 175.139 185.908 177.263C183.874 179.388 181.116 180.582 178.239 180.586ZM53.6539 0.835211C50.9892 0.838306 48.4344 1.945 46.5502 3.9125C44.6659 5.87999 43.6061 8.5476 43.6031 11.33V169.255C43.6061 172.038 44.6659 174.705 46.5502 176.673C48.4344 178.64 50.9892 179.747 53.6539 179.75H178.239C180.904 179.747 183.458 178.64 185.343 176.673C187.227 174.705 188.287 172.038 188.289 169.255V11.33C188.287 8.54763 187.227 5.88003 185.343 3.91252C183.458 1.94502 180.904 0.838306 178.239 0.835211H53.6539Z" fill="#0B2C49"/>
<path d="M41.5252 202.766C55.8552 202.766 67.4719 190.636 67.4719 175.673C67.4719 160.71 55.8552 148.58 41.5252 148.58C27.1953 148.58 15.5786 160.71 15.5786 175.673C15.5786 190.636 27.1953 202.766 41.5252 202.766Z" fill="#0B2C49"/>
<path d="M36.1388 172.137C35.7972 172.137 35.4696 171.995 35.228 171.743C34.9865 171.491 34.8507 171.149 34.8506 170.792V164.281C34.8506 160.681 37.8449 157.752 41.5251 157.752C45.2053 157.752 48.1996 160.681 48.1996 164.281V170.345C48.2027 170.524 48.1716 170.701 48.1082 170.867C48.0448 171.033 47.9504 171.184 47.8305 171.312C47.7106 171.439 47.5676 171.54 47.4099 171.61C47.2521 171.679 47.0827 171.714 46.9116 171.714C46.7406 171.714 46.5712 171.679 46.4134 171.61C46.2557 171.54 46.1127 171.439 45.9928 171.312C45.8729 171.184 45.7785 171.033 45.7151 170.867C45.6517 170.701 45.6206 170.524 45.6237 170.345V164.281C45.6237 162.164 43.784 160.442 41.5251 160.442C39.2663 160.442 37.4266 162.164 37.4266 164.281V170.793C37.4264 171.15 37.2906 171.491 37.0491 171.743C36.8076 171.995 36.4802 172.137 36.1388 172.137Z" fill="white"/>
<path d="M49.7422 169.667H33.3081C32.3497 169.667 31.5728 170.478 31.5728 171.479V187.643C31.5728 188.643 32.3497 189.455 33.3081 189.455H49.7422C50.7006 189.455 51.4776 188.643 51.4776 187.643V171.479C51.4776 170.478 50.7006 169.667 49.7422 169.667Z" fill="white"/>
<path d="M39.8892 177.961C39.8891 178.281 39.9752 178.595 40.1379 178.867C40.3005 179.139 40.5331 179.358 40.8091 179.498V182.123C40.8091 182.321 40.8843 182.511 41.0183 182.651C41.1522 182.79 41.3339 182.869 41.5233 182.869C41.7128 182.869 41.8945 182.79 42.0284 182.651C42.1624 182.511 42.2376 182.321 42.2376 182.123V179.498C42.5005 179.365 42.7244 179.161 42.8861 178.907C43.0478 178.653 43.1413 178.358 43.1571 178.053C43.1729 177.749 43.1102 177.445 42.9757 177.174C42.8411 176.904 42.6396 176.675 42.392 176.513C42.1444 176.351 41.8598 176.262 41.5678 176.253C41.2757 176.245 40.9869 176.319 40.7312 176.466C40.4756 176.614 40.2625 176.83 40.1141 177.093C39.9656 177.356 39.8873 177.655 39.8872 177.961H39.8892Z" fill="#0B2C49"/>
<path d="M167.36 90.1079H64.5334C62.0787 90.1079 60.0889 92.1857 60.0889 94.7488V109.801C60.0889 112.364 62.0787 114.442 64.5334 114.442H167.36C169.814 114.442 171.804 112.364 171.804 109.801V94.7488C171.804 92.1857 169.814 90.1079 167.36 90.1079Z" fill="white"/>
<path d="M167.359 114.859H64.5334C63.249 114.857 62.0177 114.324 61.1095 113.376C60.2013 112.427 59.6904 111.142 59.689 109.801V94.7488C59.6904 93.4077 60.2013 92.1219 61.1095 91.1735C62.0176 90.2251 63.249 89.6916 64.5334 89.6899H167.359C168.644 89.6915 169.875 90.225 170.783 91.1734C171.692 92.1217 172.203 93.4076 172.204 94.7488V109.801C172.203 111.142 171.692 112.428 170.783 113.376C169.875 114.324 168.644 114.858 167.359 114.859ZM64.5334 90.5252C63.461 90.5264 62.4329 90.9718 61.6746 91.7636C60.9163 92.5554 60.4899 93.629 60.4888 94.7488V109.801C60.49 110.92 60.9165 111.994 61.6747 112.785C62.433 113.577 63.4611 114.023 64.5334 114.024H167.359C168.432 114.023 169.46 113.577 170.218 112.786C170.976 111.994 171.403 110.92 171.404 109.801V94.7488C171.403 93.629 170.977 92.5554 170.218 91.7636C169.46 90.9717 168.432 90.5264 167.359 90.5252H64.5334Z" fill="#0B2C49"/>
<path d="M167.36 124.884H64.5334C62.0787 124.884 60.0889 126.961 60.0889 129.524V144.577C60.0889 147.14 62.0787 149.217 64.5334 149.217H167.36C169.814 149.217 171.804 147.14 171.804 144.577V129.524C171.804 126.961 169.814 124.884 167.36 124.884Z" fill="white"/>
<path d="M167.359 149.634H64.5334C63.2488 149.633 62.0173 149.099 61.1091 148.151C60.2009 147.202 59.6901 145.916 59.689 144.575V129.524C59.6904 128.183 60.2013 126.897 61.1095 125.949C62.0177 125.001 63.249 124.467 64.5334 124.466H167.359C168.644 124.467 169.875 125.001 170.783 125.949C171.692 126.897 172.203 128.183 172.204 129.524V144.575C172.203 145.916 171.692 147.202 170.784 148.151C169.876 149.099 168.644 149.633 167.359 149.634ZM64.5334 125.301C63.4611 125.302 62.433 125.748 61.6747 126.539C60.9165 127.331 60.49 128.405 60.4888 129.524V144.575C60.49 145.694 60.9165 146.768 61.6747 147.56C62.433 148.351 63.4611 148.797 64.5334 148.798H167.359C168.432 148.797 169.46 148.352 170.218 147.56C170.977 146.768 171.403 145.695 171.404 144.575V129.524C171.403 128.405 170.977 127.331 170.218 126.539C169.46 125.747 168.432 125.302 167.359 125.301H64.5334Z" fill="#0B2C49"/>
<path d="M115.947 72.0077C129.132 72.0077 139.82 60.8468 139.82 47.0792C139.82 33.3115 129.132 22.1506 115.947 22.1506C102.761 22.1506 92.0728 33.3115 92.0728 47.0792C92.0728 60.8468 102.761 72.0077 115.947 72.0077Z" fill="white"/>
<path d="M115.947 72.4252C111.146 72.4252 106.453 70.9387 102.461 68.1536C98.469 65.3685 95.3578 61.41 93.5206 56.7786C91.6834 52.1472 91.2027 47.0509 92.1393 42.1343C93.0759 37.2176 95.3877 32.7014 98.7825 29.1566C102.177 25.6119 106.502 23.1979 111.211 22.2199C115.92 21.242 120.8 21.7439 125.236 23.6623C129.671 25.5807 133.462 28.8293 136.129 32.9975C138.797 37.1656 140.22 42.0661 140.22 47.0791C140.213 53.799 137.653 60.2415 133.103 64.9932C128.552 69.7449 122.382 72.4177 115.947 72.4252ZM115.947 22.5681C111.304 22.5681 106.765 24.0057 102.905 26.699C99.0449 29.3923 96.0363 33.2203 94.2596 37.6991C92.4829 42.1779 92.018 47.1062 92.9238 51.8609C93.8295 56.6156 96.0652 60.983 99.3481 64.4109C102.631 67.8388 106.814 70.1733 111.367 71.119C115.921 72.0648 120.64 71.5794 124.93 69.7242C129.219 67.869 132.885 64.7274 135.464 60.6966C138.044 56.6658 139.42 51.9269 139.42 47.0791C139.413 40.5806 136.938 34.3504 132.537 29.7553C128.137 25.1602 122.17 22.5754 115.947 22.5681Z" fill="#0B2C49"/>
<path opacity="0.5" d="M139.29 47.079C139.297 52.8489 137.336 58.4329 133.759 62.8306C131.556 60.1486 128.823 57.9959 125.748 56.5202C122.673 55.0446 119.329 54.2809 115.945 54.2815C112.561 54.2822 109.217 55.0471 106.143 56.5239C103.068 58.0007 100.336 60.1544 98.1341 62.8373C95.705 59.8437 94.0039 56.2821 93.1753 52.4551C92.3467 48.6281 92.415 44.6488 93.3745 40.8553C94.334 37.0617 96.1563 33.5661 98.6866 30.6654C101.217 27.7647 104.38 25.5446 107.908 24.1938C111.436 22.843 115.224 22.4013 118.95 22.9064C122.677 23.4115 126.231 24.8484 129.312 27.095C132.393 29.3416 134.908 32.3315 136.645 35.8106C138.383 39.2898 139.29 43.1554 139.29 47.079Z" fill="#C6E3D8"/>
<path d="M133.759 62.8306C131.568 65.5322 128.84 67.7031 125.764 69.1923C122.688 70.6814 119.338 71.4532 115.948 71.4538C112.558 71.4544 109.208 70.684 106.132 69.1959C103.055 67.7079 100.326 65.5381 98.1343 62.8373C100.337 60.1544 103.069 58.0007 106.143 56.5239C109.217 55.0471 112.561 54.2821 115.945 54.2815C119.329 54.2809 122.673 55.0446 125.748 56.5202C128.823 57.9959 131.556 60.1486 133.759 62.8306Z" fill="white"/>
<path d="M115.947 49.7337C121.158 49.7337 125.383 45.3225 125.383 39.8811C125.383 34.4397 121.158 30.0286 115.947 30.0286C110.736 30.0286 106.511 34.4397 106.511 39.8811C106.511 45.3225 110.736 49.7337 115.947 49.7337Z" fill="white"/>
<g opacity="0.4">
<path d="M68.7442 140.014C70.3116 140.014 71.5821 138.687 71.5821 137.05C71.5821 135.414 70.3116 134.087 68.7442 134.087C67.1768 134.087 65.9062 135.414 65.9062 137.05C65.9062 138.687 67.1768 140.014 68.7442 140.014Z" fill="#0B2C49"/>
<path d="M77.6216 140.014C79.189 140.014 80.4596 138.687 80.4596 137.05C80.4596 135.414 79.189 134.087 77.6216 134.087C76.0543 134.087 74.7837 135.414 74.7837 137.05C74.7837 138.687 76.0543 140.014 77.6216 140.014Z" fill="#0B2C49"/>
<path d="M86.4991 140.014C88.0664 140.014 89.337 138.687 89.337 137.05C89.337 135.414 88.0664 134.087 86.4991 134.087C84.9317 134.087 83.6611 135.414 83.6611 137.05C83.6611 138.687 84.9317 140.014 86.4991 140.014Z" fill="#0B2C49"/>
<path d="M95.3765 140.014C96.9439 140.014 98.2145 138.687 98.2145 137.05C98.2145 135.414 96.9439 134.087 95.3765 134.087C93.8092 134.087 92.5386 135.414 92.5386 137.05C92.5386 138.687 93.8092 140.014 95.3765 140.014Z" fill="#0B2C49"/>
<path d="M104.253 140.014C105.821 140.014 107.091 138.687 107.091 137.05C107.091 135.414 105.821 134.087 104.253 134.087C102.686 134.087 101.416 135.414 101.416 137.05C101.416 138.687 102.686 140.014 104.253 140.014Z" fill="#0B2C49"/>
<path d="M113.131 140.014C114.698 140.014 115.969 138.687 115.969 137.05C115.969 135.414 114.698 134.087 113.131 134.087C111.564 134.087 110.293 135.414 110.293 137.05C110.293 138.687 111.564 140.014 113.131 140.014Z" fill="#0B2C49"/>
<path d="M122.008 140.014C123.575 140.014 124.846 138.687 124.846 137.05C124.846 135.414 123.575 134.087 122.008 134.087C120.441 134.087 119.17 135.414 119.17 137.05C119.17 138.687 120.441 140.014 122.008 140.014Z" fill="#0B2C49"/>
</g>
<g opacity="0.3">
<path d="M71.5592 102.096V103.098H67.9146V102.096H71.5592Z" fill="black"/>
<path d="M76.0885 102.096V103.098H72.4438V102.096H76.0885Z" fill="black"/>
<path d="M80.6173 102.096V103.098H76.9727V102.096H80.6173Z" fill="black"/>
<path d="M85.1461 102.096V103.098H81.5015V102.096H85.1461Z" fill="black"/>
<path d="M89.6758 102.096V103.098H86.0308V102.096H89.6758Z" fill="black"/>
<path d="M97.8495 107.751C97.0388 108.186 96.1356 108.398 95.2247 108.368C92.8047 108.368 90.7534 106.519 90.7534 103.561C90.7534 100.387 92.8639 97.6443 96.1394 97.6443C98.7069 97.6443 100.433 99.5235 100.433 102.097C100.433 104.409 99.1937 105.764 97.8067 105.764C97.2168 105.764 96.6709 105.347 96.7149 104.409H96.6557C96.4649 104.815 96.1689 105.157 95.8014 105.397C95.4338 105.636 95.0093 105.764 94.576 105.764C93.7201 105.764 92.9823 105.04 92.9823 103.823C92.9806 103.343 93.07 102.867 93.2452 102.424C93.4203 101.98 93.6779 101.576 94.003 101.237C94.3281 100.898 94.7143 100.629 95.1394 100.446C95.5644 100.263 96.02 100.17 96.4797 100.171C97.0219 100.163 97.5597 100.273 98.0586 100.495L97.5567 103.284C97.3356 104.453 97.5127 104.996 97.9995 105.01C98.7521 105.025 99.5932 103.977 99.5932 102.19C99.5932 99.9557 98.3094 98.3534 96.0222 98.3534C93.617 98.3534 91.5953 100.341 91.5953 103.469C91.5953 106.042 93.2038 107.629 95.3879 107.629C96.1622 107.648 96.9285 107.462 97.6159 107.09L97.8495 107.751ZM97.038 101.095C96.7984 101.021 96.5498 100.985 96.3001 100.987C95.0015 100.987 93.9541 102.266 93.9541 103.76C93.9541 104.438 94.2789 104.929 94.9279 104.929C95.7838 104.929 96.5657 103.789 96.7277 102.834L97.038 101.095Z" fill="black"/>
<path d="M105.078 102.096V103.098H101.433V102.096H105.078Z" fill="black"/>
<path d="M109.607 102.096V103.098H105.962V102.096H109.607Z" fill="black"/>
<path d="M114.136 102.096V103.098H110.491V102.096H114.136Z" fill="black"/>
</g>
</g>
<defs>
<clipPath id="clip0_1_996">
<rect width="356" height="360" fill="white"/>
</clipPath>
</defs>
</svg>
